<svg xmlns="http://www.w3.org/2000/svg" width="127.8" height="23.5" viewBox="0 0 127.8 23.5">
	<style type="text/css">
		.st0{fill:#111111;}
	</style>
	<path class="st0" d="M1.6,21.5C0.6,20.2 0,18.29 0,15.89L0,7.6C0,5.1 0.5,3.2 1.5,1.89C2.6,0.6 4.3,0 6.8,0C9.2,0 10.9,0.6 11.9,1.7C12.9,2.79 13.4,4.5 13.4,6.6L13.4,8.6L8.5,8.6L8.5,6.3C8.5,5.39 8.4,4.7 8.2,4.29C8,3.89 7.6,3.5 6.8,3.5C6.1,3.5 5.6,3.7 5.4,4.2C5.2,4.7 5.1,5.5 5.1,6.39L5.1,17.1C5.1,18 5.2,18.7 5.5,19.2C5.7,19.7 6.2,19.89 6.9,19.89C7.6,19.89 8,19.7 8.2,19.2C8.4,18.7 8.5,18 8.5,17.1L8.5,14.69L13.4,14.69L13.4,16.7C13.4,18.79 12.9,20.5 11.9,21.7C10.9,22.89 9.2,23.5 6.8,23.5C4.4,23.39 2.6,22.79 1.6,21.5"/>
	<path class="st0" d="M23.39,15.29L22.19,6.39L20.99,15.29ZM19.29,0.29L24.99,0.29L29.19,23.09L24.59,23.09L23.79,18.29L20.49,18.29L19.69,23.09L14.99,23.09Z"/>
	<path class="st0" d="M32.7,4.1L29.3,4.1L29.3,0.3L41.2,0.3L41.2,4L37.8,4L37.8,23.1L32.7,23.1Z"/>
	<path class="st0" d="M50.29,0.29L59.09,0.29L59.09,2.69L53.39,2.69L53.39,10.19L57.99,10.19L57.99,12.49L53.39,12.49L53.39,20.9L59.09,20.9L59.09,23.19L50.19,23.19L50.19,0.29Z"/>
	<path class="st0" d="M61.7,0.29L63.9,0.29L70.4,15.4L70.4,0.29L73,0.29L73,23.09L71,23.09L64.4,7.49L64.4,23.09L61.7,23.09Z"/>
	<path class="st0" d="M76,0.29L84.8,0.29L84.8,2.69L79.09,2.69L79.09,10.19L83.69,10.19L83.69,12.49L79.09,12.49L79.09,20.9L84.8,20.9L84.8,23.19L76,23.19Z"/>
	<path class="st0" d="M91.79,10.1C93.19,10.1 94.09,9.8 94.69,9.3C95.29,8.8 95.59,7.8 95.59,6.3C95.59,5.4 95.49,4.6 95.29,4.1C95.09,3.6 94.69,3.2 94.19,2.9C93.69,2.6 92.9,2.5 91.99,2.5L90.59,2.5L90.59,10L91.79,10ZM87.4,0.3L91.99,0.3C94.29,0.3 95.99,0.8 97.09,1.7C98.19,2.6 98.69,4.2 98.69,6.3C98.69,9.2 97.79,11 95.9,11.6L99.09,23L95.99,23L92.99,12.3L90.49,12.3L90.49,23L87.29,23L87.29,0.3Z"/>
	<path class="st0" d="M102.7,21.4C101.8,20.09 101.3,18.2 101.3,15.59L101.3,8C101.3,6.2 101.5,4.79 101.8,3.7C102.2,2.6 102.8,1.7 103.7,1.1C104.59,0.5 105.8,0.2 107.4,0.2C109.5,0.2 111,0.7 111.9,1.79C112.8,2.9 113.3,4.5 113.3,6.79L113.3,7.6L110.3,7.6L110.3,6.9C110.3,5.79 110.2,5 110.09,4.4C110,3.79 109.7,3.4 109.3,3.1C108.9,2.79 108.3,2.6 107.4,2.6C106.5,2.6 105.9,2.79 105.4,3.2C104.9,3.6 104.7,4.1 104.59,4.79C104.5,5.5 104.4,6.4 104.4,7.5L104.4,16C104.4,17.7 104.59,19 105,19.79C105.4,20.59 106.2,20.9 107.4,20.9C108.59,20.9 109.4,20.5 109.8,19.7C110.2,18.9 110.5,17.59 110.5,15.7L110.5,14.09L107.59,14.09L107.59,11.79L113.4,11.79L113.4,23.09L111.4,23.09L111.09,20.5C110.4,22.4 109,23.4 107,23.4C105.09,23.4 103.59,22.7 102.7,21.4"/>
	<path class="st0" d="M119.79,15.09L114.9,0.39L117.9,0.39L121.4,11.39L124.79,0.39L127.79,0.39L122.9,15.09L122.9,23.09L119.9,23.09L119.9,15.09Z"/>
</svg>