<svg xmlns="http://www.w3.org/2000/svg" width="26.94" height="34.08" viewBox="0 0 26.94 34.08">
	<style type="text/css">
		.st0{fill:#000000;}
	</style>
	<path class="st0" d="M13.47,0L0,1.41L0,26.07L13.47,34.08L26.9,26.09L26.94,26.07L26.94,1.41L13.61,0.01ZM1.92,3.14L13.47,1.93L25.02,3.14L25.02,12.12L25.01,12.12L13.49,5.33L13.49,5.22L13.4,5.27L13.31,5.22L13.31,5.33L1.92,12.11ZM2.03,13.62L13.4,6.78L24.92,13.49L20.44,16.14L13.35,11.91L13.33,13.33L19.24,16.84L18.38,17.35L13.35,14.36L13.33,15.77L17.16,18.05L16.38,18.57L13.35,16.78L13.33,18.2L15.18,19.29L13.38,20.37ZM21.61,22.17L21.6,16.99L25.02,14.95L25.02,24.97L13.47,31.84L1.92,24.97L1.92,15.12L13.33,21.91L13.35,22.96L5.4,18.23L5.39,19.65L13.37,24.44L13.39,25.52L5.41,20.78L5.4,22.19L13.42,27.01L13.47,27.04Z"/>
</svg>