<svg xmlns="http://www.w3.org/2000/svg" width="55.47" height="59.95" viewBox="0 0 55.47 59.95">
	<style type="text/css">
		.st0{fill:#000000;}
	</style>
	<path class="st0" d="M53.07,24.68C53.07,25.08 52.75,25.41 52.34,25.41L50.31,25.41C50.31,25.41 50.31,25.41 50.31,25.41C50.31,25.41 50.31,25.41 50.31,25.41L27.74,25.41C27.74,25.41 27.74,25.41 27.73,25.41C27.73,25.41 27.73,25.41 27.73,25.41L5.16,25.41C5.16,25.41 5.16,25.41 5.16,25.41C5.16,25.41 5.16,25.41 5.15,25.41L3.13,25.41C2.72,25.41 2.39,25.08 2.39,24.68L2.39,15.3C2.39,14.9 2.73,14.57 3.13,14.57L52.34,14.57C52.74,14.57 53.07,14.9 53.07,15.3ZM49.11 27.81L28.93 27.81L28.93 41.48L49.11 41.48ZM45.48,57.55L28.93,57.55L28.93,43.88L49.11,43.88L49.11,53.92C49.11,55.92 47.48,57.55 45.48,57.55M6.36,53.92L6.36,43.88L26.53,43.88L26.53,57.55L9.99,57.55C7.99,57.55 6.36,55.92 6.36,53.92M6.36 27.81L26.53 27.81L26.53 41.48L6.36 41.48ZM26.53,27.81M11.74,5.2C13.15,2.61 16.4,1.64 18.99,3.04C22.52,4.95 24.99,9.64 26.12,12.17L13.48,12.17C11.22,10.65 10.42,7.64 11.74,5.2M36.48,3.04C37.73,2.36 39.18,2.21 40.55,2.62C41.92,3.03 43.04,3.94 43.72,5.2C44.4,6.46 44.55,7.9 44.15,9.27C43.79,10.48 43.02,11.47 41.99,12.17L29.35,12.17C30.48,9.64 32.95,4.95 36.48,3.04M52.34,12.17L45.38,12.17C45.84,11.5 46.21,10.76 46.45,9.96C47.04,7.97 46.82,5.88 45.84,4.06C44.85,2.24 43.22,0.91 41.23,0.32C39.25,-0.26 37.15,-0.04 35.34,0.93C31.73,2.89 29.17,7.04 27.73,9.94C26.3,7.04 23.74,2.89 20.13,0.93C16.38,-1.09 11.67,0.3 9.63,4.06C8.2,6.71 8.48,9.84 10.09,12.17L3.13,12.17C1.4,12.17 0,13.57 0,15.3L0,24.68C0,26.41 1.4,27.81 3.13,27.81L3.96,27.81L3.96,53.92C3.96,57.24 6.66,59.95 9.99,59.95L45.48,59.95C48.8,59.95 51.51,57.24 51.51,53.92L51.51,27.81L52.34,27.81C54.07,27.81 55.47,26.41 55.47,24.68L55.47,15.3C55.47,13.57 54.07,12.17 52.34,12.17"/>
</svg>